# xmcd
#
# Track frame offsets:
#	150
#	18103
#	38204
#	54529
#	72386
#	83774
#	95932
#	113880
#	125280
#	137091
#	153348
#	167185
#	184341
#	199173
#	218351
#	237983
#	255615
#	272475
#	287766
#	305600
#
# Disc length: 4271 seconds
#
# Revision: 0
# Processed by: cddbd v1.5.2PL0 Copyright (c) Steve Scherf et al.
# Submitted via: EZCDAudioConverter 2.2.2.1
#
DISCID=2010ad14
DTITLE=Domenico Modugno - Grandes Exitos
DYEAR=2007
DGENRE=Balada
TTITLE0=La Distancia Es Como El Viento
TTITLE1=Como Has Hecho
TTITLE2=El Maestro De Violin
TTITLE3=Piange Il Telefono
TTITLE4=Valore
TTITLE5=San Valentin
TTITLE6=Vecchio Frank
TTITLE7=La Ventura
TTITLE8=No Bambina Mia
TTITLE9=Mel Blue Dipinto Di Blue
TTITLE10=Piove
TTITLE11=Mera Viglioso
TTITLE12=Tu Si Na Cosa Grande
TTITLE13=Come Hai Fato
TTITLE14=La Lontananza
TTITLE15=Como Stay
TTITLE16=Resta Cume
TTITLE17=Dio Como Ti Amo
TTITLE18=La Puerta Ista Chela
TTITLE19=Oh Vesubio
EXTD=
EXTT0=
EXTT1=
EXTT2=
EXTT3=
EXTT4=
EXTT5=
EXTT6=
EXTT7=
EXTT8=
EXTT9=
EXTT10=
EXTT11=
EXTT12=
EXTT13=
EXTT14=
EXTT15=
EXTT16=
EXTT17=
EXTT18=
EXTT19=
PLAYORDER=
